<svg width="443" height="556" viewBox="0 0 443 556" fill="none" xmlns="http://www.w3.org/2000/svg">
<path d="M138.55 539.641C161.798 548.998 187.019 554.55 213.502 555.475C249.342 556.727 283.424 549.317 313.893 535.241C277.356 520.886 244.266 499.893 216.024 473.793C197.718 503.103 170.642 526.255 138.55 539.641Z" fill="#9AEBA3"/>
<path d="M216.021 473.801C151.555 414.179 112.447 327.884 115.752 233.233C115.86 230.16 116.022 227.088 116.212 224.017C104.438 220.964 92.3648 219.207 80.2084 218.776C62.9317 218.166 45.665 220.241 29.0254 224.929C11.8154 255.074 1.43135 289.662 0.137351 326.71C-3.20165 422.321 54.6594 505.864 138.546 539.649C170.639 526.262 197.714 503.139 216.021 473.801Z" fill="#DAFDBA"/>
<path d="M216.022 473.796C231.01 449.81 240.097 421.69 241.155 391.393C243.938 311.698 190.363 243.142 116.213 224.012C116.023 227.083 115.861 230.155 115.753 233.228C112.448 327.879 151.556 414.174 216.022 473.796Z" fill="#9AEBA3"/>
<path d="M232.863 0C190.632 33.833 157.284 78.444 137.107 129.835C125.556 159.271 118.297 190.89 116.178 224.035C190.328 243.165 243.904 311.721 241.121 391.415C240.063 421.712 230.949 449.805 215.987 473.819C244.227 499.946 277.318 520.912 313.855 535.266C387.192 501.366 439.225 428.42 442.238 342.139C444.19 286.238 422.712 236.415 392.363 194.361C360.312 149.884 232.863 0 232.863 0Z" fill="#45C4B0"/>
</svg>
